HIERARCHY
ROOT Hips
{
	OFFSET -3.958830 18.904000 13.208200
	CHANNELS 6 Xposition Yposition Zposition Zrotation Yrotation Xrotation 
	JOINT LHipJoint
	{
		OFFSET 0.000000 0.000000 0.000000
		CHANNELS 3 Zrotation Yrotation Xrotation
		JOINT LeftUpLeg
		{
			OFFSET 1.800000 -1.400000 0.085000
			CHANNELS 3 Zrotation Yrotation Xrotation
			JOINT LeftLeg
			{
				OFFSET 2.215000 -6.000000 0.000000
				CHANNELS 3 Zrotation Yrotation Xrotation
				JOINT LeftFoot
				{
					OFFSET 2.500000 -6.900000 0.000000
					CHANNELS 3 Zrotation Yrotation Xrotation
					JOINT LeftToeBase
					{
						OFFSET 0.200000 -0.500000 1.950000
						CHANNELS 3 Zrotation Yrotation Xrotation
						End Site
						{
							OFFSET 0.000000 0.000000 0.000000
						}
					}
				}
			}
		}
	}
	JOINT RHipJoint
	{
		OFFSET 0.000000 0.000000 0.000000
		CHANNELS 3 Zrotation Yrotation Xrotation
		JOINT RightUpLeg
		{
			OFFSET -1.800000 -1.400000 0.085000
			CHANNELS 3 Zrotation Yrotation Xrotation
			JOINT RightLeg
			{
				OFFSET -2.215000 -6.000000 0.000000
				CHANNELS 3 Zrotation Yrotation Xrotation
				JOINT RightFoot
				{
					OFFSET -2.500000 -6.900000 0.000000
					CHANNELS 3 Zrotation Yrotation Xrotation
					JOINT RightToeBase
					{
						OFFSET -0.200000 -0.500000 1.950000
						CHANNELS 3 Zrotation Yrotation Xrotation
						End Site
						{
							OFFSET 0.000000 0.000000 0.000000
						}
					}
				}
			}
		}
	}
	JOINT LowerBack
	{
		OFFSET 0.000000 0.000000 0.000000
		CHANNELS 3 Zrotation Yrotation Xrotation
		JOINT Spine
		{
			OFFSET -0.087000 1.940000 -0.288900
			CHANNELS 3 Zrotation Yrotation Xrotation
			JOINT Spine1
			{
				OFFSET 0.000000 1.950000 0.060000
				CHANNELS 3 Zrotation Yrotation Xrotation
				JOINT Neck
				{
					OFFSET 0.000000 0.000000 0.000000
					CHANNELS 3 Zrotation Yrotation Xrotation
					JOINT Neck1
					{
						OFFSET 0.000000 1.600000 0.340000
						CHANNELS 3 Zrotation Yrotation Xrotation
						JOINT Head
						{
							OFFSET 0.000000 1.667000 -0.240000
							CHANNELS 3 Zrotation Yrotation Xrotation
							End Site
							{
								OFFSET 0.000000 0.000000 0.000000
							}
						}
					}
				}
				JOINT LeftShoulder
				{
					OFFSET 0.000000 0.000000 0.000000
					CHANNELS 3 Zrotation Yrotation Xrotation
					JOINT LeftArm
					{
						OFFSET 2.700000 1.550000 -0.730000
						CHANNELS 3 Zrotation Yrotation Xrotation
						JOINT LeftForeArm
						{
							OFFSET 5.450000 0.000000 0.000000
							CHANNELS 3 Zrotation Yrotation Xrotation
							JOINT LeftHand
							{
								OFFSET 3.450000 0.000000 0.000000
								CHANNELS 3 Zrotation Yrotation Xrotation
								JOINT LeftHandIndex1
								{
									OFFSET 0.750000 0.000000 0.000000
									CHANNELS 3 Zrotation Yrotation Xrotation
									End Site
									{
										OFFSET 0.000000 0.000000 0.000000
									}
								}
							}
						}
					}
				}
				JOINT RightShoulder
				{
					OFFSET 0.000000 0.000000 0.000000
					CHANNELS 3 Zrotation Yrotation Xrotation
					JOINT RightArm
					{
						OFFSET -2.700000 1.550000 -0.730000
						CHANNELS 3 Zrotation Yrotation Xrotation
						JOINT RightForeArm
						{
							OFFSET -5.450000 0.000000 0.000000
							CHANNELS 3 Zrotation Yrotation Xrotation
							JOINT RightHand
							{
								OFFSET -3.450000 0.000000 0.000000
								CHANNELS 3 Zrotation Yrotation Xrotation
								JOINT RightHandIndex1
								{
									OFFSET -0.750000 0.000000 0.000000
									CHANNELS 3 Zrotation Yrotation Xrotation
									End Site
									{
										OFFSET 0.000000 0.000000 0.000000
									}
								}
							}
						}
					}
				}
			}
		}
	}
}
MOTION
Frames: 10
Frame Time: 0.016667
-1.867510 16.620670 -0.607800 -8.718996 -26.654014 3.650559 -15.020023 11.905803 3.930980 3.858222 -5.625840 -34.328979 -8.968426 9.408947 30.182601 -0.082583 5.917125 2.652239 -0.141270 -0.510090 -0.126900 18.557866 -10.393884 3.341362 0.685835 8.018319 -19.195810 9.516960 -14.673946 55.469355 -1.281359 -9.518149 1.368748 -0.277020 0.721270 0.089630 -4.198382 -0.408965 -8.007773 9.431196 4.567037 12.393906 -3.939858 6.278776 2.848530 1.084522 -3.937228 -6.983659 -13.126904 7.956353 59.139449 -0.667290 3.674270 17.884420 -12.818700 9.950319 -0.415462 -59.423820 -10.498953 -0.227175 -27.244844 -54.286149 11.668196 -3.810762 3.165197 0.309570 0.372540 -0.347540 0.234570 9.810698 -5.271457 1.678719 58.341393 4.660233 -7.120111 9.759779 30.156322 0.954629 2.305273 -1.293195 -0.396440 0.265750 0.151810 -0.022660 
-1.878810 16.612560 -0.596340 -8.790465 -26.806992 3.585832 -15.050036 11.854352 3.942783 4.229972 -5.659332 -34.677406 -9.010795 9.730887 31.122172 -0.028240 6.120395 2.587996 -0.139240 -0.511260 -0.120670 18.544615 -10.276584 3.422142 0.177716 8.633344 -20.533189 9.740779 -15.369899 57.451214 -1.375671 -9.899435 1.246587 -0.283410 0.722070 0.096700 -4.152500 -0.475714 -8.088555 9.100851 4.489236 12.669419 -3.957219 6.207478 2.659220 1.170024 -3.896946 -7.055281 -13.050894 8.029437 59.183437 -0.758300 3.921070 18.381750 -13.279969 9.577158 -0.439108 -58.890009 -10.403541 -0.617617 -26.245933 -54.007480 11.061214 -3.807288 3.160033 0.306510 0.372100 -0.340580 0.245110 10.148537 -4.914964 1.758629 58.220930 4.518439 -7.285330 9.427662 30.182147 0.858076 2.320459 -1.303984 -0.391750 0.254920 0.135590 -0.015530 
-1.902060 16.588270 -0.568600 -9.012158 -26.665289 3.118507 -15.106407 11.768176 3.983143 5.047279 -5.777841 -35.127504 -9.379099 10.512125 33.145842 0.067245 6.564154 2.406127 -0.100060 -0.461510 -0.085780 18.513215 -10.037011 3.578605 -1.222837 9.567037 -22.788923 10.828268 -17.376049 61.087043 -1.603252 -10.709020 0.986934 -0.269660 0.666050 0.096330 -4.051800 -0.667359 -8.284208 8.576695 4.166800 13.713792 -3.957385 5.961735 2.068185 1.340877 -3.814875 -7.306111 -13.130913 8.353815 60.240192 -0.548210 4.207650 17.998810 -13.853337 8.997155 -0.548067 -58.222600 -10.525768 -1.015949 -24.541361 -52.728026 9.895115 -3.774088 3.143160 0.325330 0.333150 -0.300180 0.242600 10.478294 -4.373319 1.967491 58.256960 4.075058 -7.744693 8.424374 30.371530 0.618756 2.335700 -1.303916 -0.365610 0.230760 0.106220 -0.020550 
-1.928660 16.561960 -0.520580 -9.411374 -26.167278 2.610770 -15.150535 11.687770 4.024713 6.245952 -5.834020 -35.245661 -10.293994 11.503664 34.904001 0.200125 7.067707 2.218575 -0.052090 -0.405570 -0.041360 18.491586 -9.813117 3.709803 -2.801621 10.170546 -25.048932 11.558662 -19.322579 64.358866 -1.820013 -11.456787 0.766525 -0.261120 0.616290 0.112790 -3.982916 -0.861423 -8.463248 8.366177 3.554899 14.683426 -4.159214 5.396440 1.434939 1.597325 -3.663605 -7.422718 -13.055743 8.514066 61.431674 -0.773020 4.596630 17.847060 -14.814360 8.514818 -0.816491 -56.792177 -10.504696 -1.329754 -23.501908 -50.972229 9.113590 -3.754549 3.127282 0.330900 0.306850 -0.253450 0.253290 11.019245 -4.127705 2.101091 58.075353 3.461305 -8.210106 7.982490 30.998488 0.552368 2.348836 -1.317223 -0.323550 0.201560 0.062240 -0.017090 
-1.963740 16.535830 -0.464700 -9.341595 -25.304400 1.818881 -15.232848 11.708971 4.079337 7.163914 -5.976894 -34.960978 -11.284242 12.447068 36.333518 0.351107 7.471972 2.058519 -0.009660 -0.327260 -0.015260 18.416734 -9.614063 3.767504 -4.799097 10.134502 -27.054864 11.869641 -20.763004 66.456048 -1.957251 -11.941911 0.624913 -0.248290 0.546350 0.107590 -3.740453 -1.233967 -8.623565 6.942326 2.905827 15.740925 -3.704824 4.660451 0.479756 1.781120 -3.507168 -7.637881 -13.208533 8.792978 62.795423 -1.027160 5.055770 18.030070 -15.459062 8.192968 -1.010649 -55.439656 -10.401266 -1.588001 -21.712578 -48.761892 8.019750 -3.711277 3.116241 0.319660 0.269650 -0.202780 0.261980 11.585081 -3.942319 2.304046 57.598966 2.451853 -8.754059 8.169666 32.132808 0.687201 2.373208 -1.340336 -0.270340 0.162760 0.009440 -0.003270 
-1.997730 16.513380 -0.402680 -9.168609 -24.305923 1.122029 -15.293806 11.727724 4.120059 8.071564 -6.115729 -34.414837 -12.593017 13.309474 36.965456 0.433197 7.831897 1.940915 -0.003770 -0.320020 0.003880 18.361908 -9.462800 3.781183 -6.805625 9.738131 -28.606812 12.353369 -21.902553 67.218279 -2.017534 -12.201175 0.548228 -0.248090 0.527170 0.085960 -3.566410 -1.552929 -8.712545 5.764918 2.185819 16.236579 -3.675954 3.787240 -0.109004 1.911458 -3.401523 -7.806141 -13.555070 9.324890 64.099854 -1.012160 5.327040 18.417870 -16.025542 7.772434 -1.193055 -53.952622 -10.244197 -1.824891 -19.926273 -45.893868 6.822866 -3.703644 3.043095 0.339700 0.249860 -0.186690 0.261290 12.138667 -3.845720 2.511000 57.794184 1.366050 -9.627475 7.676368 33.776777 0.653904 2.366130 -1.327969 -0.278810 0.174220 -0.006950 -0.009950 
-2.024520 16.500790 -0.340650 -9.387388 -23.689410 0.636431 -15.312359 11.746210 4.133701 9.186108 -6.037617 -33.663306 -13.951804 14.102738 37.152391 0.522957 8.115370 1.840195 0.037500 -0.271380 0.024010 18.346817 -9.363726 3.783283 -8.401198 9.346560 -29.744039 12.811404 -22.474730 66.984972 -2.033524 -12.243617 0.524870 -0.232680 0.501440 0.088120 -3.526076 -1.763796 -8.749455 5.564071 1.462793 16.586367 -4.091603 2.978734 -0.537730 1.939260 -3.595307 -7.800436 -14.622342 10.443388 64.968544 -0.305360 5.142000 18.434840 -16.790036 7.712781 -1.571339 -52.572247 -10.298047 -1.905575 -17.375086 -42.430173 5.361699 -3.690541 3.010195 0.342680 0.224780 -0.161980 0.276410 12.906369 -4.036294 2.592384 57.363875 0.316622 -10.324624 8.460035 35.956101 0.998941 2.359265 -1.360208 -0.251940 0.162640 -0.037200 -0.000030 
-2.041640 16.492110 -0.285240 -10.225338 -23.549900 0.473537 -15.284511 11.774558 4.123643 10.458086 -5.746021 -32.997798 -14.569493 14.579549 37.312349 0.553199 8.314915 1.768896 0.058200 -0.235040 0.034870 18.374370 -9.371407 3.740128 -9.035242 8.989477 -30.371256 12.696549 -21.821395 65.369186 -1.938542 -11.898897 0.604768 -0.209030 0.493700 0.084260 -3.622733 -1.796695 -8.715803 6.580348 0.831978 16.648486 -5.000060 2.422058 -0.253366 2.173490 -3.629365 -7.639699 -15.009498 11.063988 65.287073 -0.317310 5.334350 17.898030 -17.380801 7.676986 -2.058686 -51.562455 -10.801726 -1.808612 -14.845983 -38.845233 4.024099 -3.703979 2.947509 0.345230 0.218490 -0.146640 0.285540 12.911494 -4.469141 2.681844 57.452828 -0.413808 -11.072118 9.659647 38.787528 1.482872 2.332765 -1.397653 -0.250440 0.173430 -0.053930 0.005290 
-2.053010 16.501160 -0.239070 -10.593913 -23.503322 0.062487 -15.279579 11.884168 4.114839 10.972539 -5.606853 -32.190810 -14.782456 14.756123 37.375552 0.554373 8.394656 1.734559 0.090710 -0.206950 0.080500 18.361265 -9.452746 3.635411 -9.630191 8.413905 -30.486548 12.123053 -20.333616 62.682333 -1.762148 -11.250017 0.756917 -0.190190 0.465020 0.085080 -3.591890 -1.865345 -8.657363 6.592438 0.534649 16.955789 -5.561413 2.109151 -0.240199 2.489366 -3.504082 -7.360646 -15.024913 11.367048 65.975085 -0.711250 5.642540 17.328540 -18.271168 7.884054 -2.763124 -50.281520 -11.408209 -1.516382 -12.676223 -35.016440 2.968070 -3.716407 2.889586 0.360200 0.202950 -0.127160 0.281450 13.163587 -5.100904 2.732615 57.039090 -1.274947 -11.628562 11.934403 41.859705 2.419121 2.311756 -1.451385 -0.247780 0.170970 -0.074670 -0.007860 
-2.059080 16.517660 -0.194590 -10.983789 -23.654617 -0.003219 -15.244487 11.997067 4.100598 11.344389 -5.436510 -31.353843 -14.972095 14.732697 36.953593 0.537876 8.381000 1.736852 0.100420 -0.203140 0.093930 18.372008 -9.616716 3.474310 -9.828337 7.697869 -30.220330 11.384632 -18.112642 58.312279 -1.477428 -10.254172 1.014025 -0.180280 0.464000 0.094420 -3.642480 -1.818551 -8.520698 7.026699 0.178015 16.657972 -6.515842 1.722669 0.187366 2.740318 -3.634745 -7.018466 -15.364398 11.854344 65.820618 -1.142540 5.879990 17.274430 -18.935245 8.063593 -3.369729 -49.360340 -11.942203 -1.321694 -10.124176 -30.936176 1.853522 -3.757113 2.848492 0.351530 0.210360 -0.134200 0.277410 13.216406 -5.597401 2.719242 56.560128 -1.586886 -11.736945 14.676694 44.042175 3.502531 2.297646 -1.519147 -0.246650 0.160300 -0.076600 -0.011970 
